<svg width="24" height="24" fill="none" xmlns="http://www.w3.org/2000/svg"><path fill-rule="evenodd" clip-rule="evenodd" d="M12 9a3 3 0 1 0 0 6 3 3 0 0 0 0-6zm-4.5 3a4.5 4.5 0 1 1 9 0 4.5 4.5 0 0 1-9 0z" fill="#101010"/><path fill-rule="evenodd" clip-rule="evenodd" d="M7.875 4.125a3.75 3.75 0 0 0-3.75 3.75v8.25a3.75 3.75 0 0 0 3.75 3.75h8.25a3.75 3.75 0 0 0 3.75-3.75v-8.25a3.75 3.75 0 0 0-3.75-3.75h-8.25zm-5.25 3.75c0-2.9 2.35-5.25 5.25-5.25h8.25c2.9 0 5.25 2.35 5.25 5.25v8.25c0 2.9-2.35 5.25-5.25 5.25h-8.25a5.25 5.25 0 0 1-5.25-5.25v-8.25z" fill="#101010"/><path d="M16.875 8.25a1.125 1.125 0 1 0 0-2.25 1.125 1.125 0 0 0 0 2.25z" fill="#101010"/></svg>