<svg width="16" height="17" fill="none" xmlns="http://www.w3.org/2000/svg"><path fill-rule="evenodd" clip-rule="evenodd" d="M13.5 4.125c.207 0 .375.168.375.375v3a.375.375 0 0 1-.75 0v-3c0-.207.168-.375.375-.375z"/><path fill-rule="evenodd" clip-rule="evenodd" d="M11.625 6c0-.207.168-.375.375-.375h3a.375.375 0 0 1 0 .75h-3A.375.375 0 0 1 11.625 6zM10.5 1.625c.207 0 .375.168.375.375v2a.375.375 0 0 1-.75 0V2c0-.207.168-.375.375-.375z"/><path fill-rule="evenodd" clip-rule="evenodd" d="M9.125 3c0-.207.168-.375.375-.375h2a.375.375 0 0 1 0 .75h-2A.375.375 0 0 1 9.125 3zM6.35 2.6a.375.375 0 0 1 .467.47 5.377 5.377 0 0 0 6.611 6.613.374.374 0 0 1 .474.256c.02.07.019.143-.002.211A6.126 6.126 0 1 1 6.35 2.6zm-.398.93a5.376 5.376 0 1 0 7.019 7.018A6.128 6.128 0 0 1 5.95 3.53z"/></svg>