<svg width="16" height="17" fill="none" xmlns="http://www.w3.org/2000/svg"><path fill-rule="evenodd" clip-rule="evenodd" d="M8 5.125a3.375 3.375 0 1 0 0 6.75 3.375 3.375 0 0 0 0-6.75zM3.875 8.5a4.125 4.125 0 1 1 8.25 0 4.125 4.125 0 0 1-8.25 0zM8 1.125c.207 0 .375.168.375.375v1.25a.375.375 0 1 1-.75 0V1.5c0-.207.168-.375.375-.375zM2.785 3.285a.375.375 0 0 1 .53 0l.884.884a.375.375 0 1 1-.53.53l-.884-.884a.375.375 0 0 1 0-.53zM.625 8.5c0-.207.168-.375.375-.375h1.25a.375.375 0 1 1 0 .75H1A.375.375 0 0 1 .625 8.5zM4.2 12.3a.375.375 0 0 1 0 .531l-.885.884a.375.375 0 1 1-.53-.53l.884-.884a.375.375 0 0 1 .53 0zM8 13.875c.207 0 .375.168.375.375v1.25a.375.375 0 0 1-.75 0v-1.25c0-.207.168-.375.375-.375zM11.8 12.3a.375.375 0 0 1 .531 0l.884.885a.375.375 0 0 1-.53.53l-.884-.884a.375.375 0 0 1 0-.53zM13.375 8.5c0-.207.168-.375.375-.375H15a.375.375 0 0 1 0 .75h-1.25a.375.375 0 0 1-.375-.375zM13.215 3.285a.375.375 0 0 1 0 .53l-.884.884a.375.375 0 1 1-.53-.53l.884-.884a.375.375 0 0 1 .53 0z"/></svg>